# xmcd
#
# Track frame offsets:
#	150
#	19376
#	40619
#	64560
#	82533
#	121958
#	146228
#	170015
#	189832
#
# Disc length: 2900 seconds
#
# Revision: 0
# Processed by: cddbd v1.5.1PL0 Copyright (c) Steve Scherf et al.
# Submitted via: audiograbber 1.83.01
#
DISCID=6c0b5209
DTITLE=Carcassinova - Best Of
DYEAR=1996
DGENRE=Alternative Rock
TTITLE0=Sail Away
TTITLE1=I See Your Faces
TTITLE2=Carcassinova
TTITLE3=Love In Disguise (live)
TTITLE4=Ballad 4 You and Forever (live)
TTITLE5=Marchin' On
TTITLE6=The Undertaker
TTITLE7=When The Sun Goes Down
TTITLE8=Summer Reggae (live)
EXTD=
EXTT0=
EXTT1=
EXTT2=
EXTT3=
EXTT4=
EXTT5=
EXTT6=
EXTT7=
EXTT8=
PLAYORDER=
